<?xml version="1.0" encoding="UTF-8"?>
<svg version="1.1" xmlns="http://www.w3.org/2000/svg" width="151" height="123">
<path d="M0 0 C49.83 0 99.66 0 151 0 C151 40.59 151 81.18 151 123 C101.17 123 51.34 123 0 123 C0 82.41 0 41.82 0 0 Z " fill="#191919" transform="translate(0,0)"/>
<path d="M0 0 C5.92239601 -0.09964557 11.84429294 -0.17183264 17.76733398 -0.21972656 C19.77783724 -0.23971393 21.78828333 -0.26691326 23.79858398 -0.30175781 C48.8003594 -0.72393828 48.8003594 -0.72393828 58.3125 7.5625 C63.03430434 11.55263736 67.74439513 12.33519764 73.734375 13.37890625 C77.53577142 14.10189911 80.55753628 15.27876814 84 17 C84.66 15.35 85.32 13.7 86 12 C86.99 12 87.98 12 89 12 C89.94220126 17.52708611 90.12116149 22.83758352 90.0625 28.4375 C90.05798828 29.26443359 90.05347656 30.09136719 90.04882812 30.94335938 C90.03715811 32.96227146 90.01922718 34.98114574 90 37 C89.01 37 88.02 37 87 37 C86.82984375 36.41992188 86.6596875 35.83984375 86.484375 35.2421875 C84.4761586 28.76889422 82.17682557 22.52961461 76 19 C68.42299188 16.06197644 59.422365 15.54897809 51.8515625 18.8203125 C46.77618761 22.05399017 42.63558619 27.18458245 41 33 C45.32285707 30.2876191 47.99330547 28.39249207 50.3125 23.8125 C51.84462894 21.06398491 52.54423554 20.17231835 55.53125 19.04296875 C58.02806181 18.55552937 60.46476148 18.19691173 63 18 C63 20.31 63 22.62 63 25 C62.34 25 61.68 25 61 25 C60.9071875 25.8353125 60.9071875 25.8353125 60.8125 26.6875 C59.6391063 30.027159 57.65553186 31.71500747 55 34 C52.6875 34.8125 52.6875 34.8125 51 35 C51 35.66 51 36.32 51 37 C51.86625 37.0825 52.7325 37.165 53.625 37.25 C58.7929424 38.39843164 61.85307414 40.7323451 65.375 44.625 C67.59132874 49.2281443 68.02938561 52.98464757 67 58 C64.0043483 63.81216144 59.33776799 68.33111601 53.5 71.25 C50.86789896 72.03963031 48.7321625 72.15612357 46 72 C45.32421875 70.234375 45.32421875 70.234375 45 68 C46.14453125 66.078125 46.14453125 66.078125 47.8125 64.25 C48.62654297 63.32960938 48.62654297 63.32960938 49.45703125 62.390625 C51 61 51 61 53 61 C53.05423638 59.08364783 53.09289963 57.16685075 53.125 55.25 C53.14820313 54.18265625 53.17140625 53.1153125 53.1953125 52.015625 C53.0007047 49.01088063 52.6951621 47.45468278 51 45 C48.66261938 43.5283159 46.45100199 42.23067189 44 41 C43.39559082 40.65936523 42.79118164 40.31873047 42.16845703 39.96777344 C39.78650305 38.90471719 38.04925981 38.69118621 35.453125 38.5859375 C34.69161133 38.55032715 33.93009766 38.5147168 33.14550781 38.47802734 C31.71223145 38.42702881 31.71223145 38.42702881 30.25 38.375 C27.1975 38.25125 24.145 38.1275 21 38 C21 47.9 21 57.8 21 68 C23.97 67.505 23.97 67.505 27 67 C26.505 65.14375 26.505 65.14375 26 63.25 C24.30922749 55.65951063 24.31124957 47.59937694 26 40 C29.96 40 33.92 40 38 40 C38.04898438 41.31613281 38.09796875 42.63226563 38.1484375 43.98828125 C38.70694319 57.5937297 38.70694319 57.5937297 41 71 C41.66 71 42.32 71 43 71 C43.680625 72.051875 44.36125 73.10375 45.0625 74.1875 C48.24550004 78.71361566 51.71927721 81.28774268 57 83 C65.20432754 84.08126398 73.02276751 83.76223805 80 79 C83.55987181 75.98780078 86.41361173 72.87958241 89 69 C89.99 69 90.98 69 92 69 C89.08555538 77.31861581 82.92203984 83.0305809 75.2734375 87.125 C66.62889113 90.45211063 55.50045245 90.27583901 46.921875 86.91015625 C41.28958323 84.24283108 37.15553548 80.55130077 33 76 C33 75.34 33 74.68 33 74 C22.11 74 11.22 74 0 74 C0 73.01 0 72.02 0 71 C0.63808594 70.93941406 1.27617187 70.87882812 1.93359375 70.81640625 C2.75988281 70.73261719 3.58617187 70.64882812 4.4375 70.5625 C5.26121094 70.48128906 6.08492187 70.40007812 6.93359375 70.31640625 C8.98662025 70.21069185 8.98662025 70.21069185 10 69 C10.12369325 67.0064857 10.1779639 65.0086353 10.20532227 63.01147461 C10.22526749 61.73022202 10.24521271 60.44896942 10.26576233 59.12889099 C10.28274797 57.72004316 10.29962673 56.31119405 10.31640625 54.90234375 C10.33696915 53.46887095 10.35796544 52.03540431 10.37937927 50.60194397 C10.43466859 46.8224688 10.48404745 43.0429383 10.53222656 39.2633667 C10.58239165 35.40925145 10.63810371 31.55521691 10.69335938 27.70117188 C10.80102479 20.13418286 10.90245097 12.5671269 11 5 C7.3162378 3.45620868 3.96435532 2.55316586 0 2 C0 1.34 0 0.68 0 0 Z " fill="#DADADA" transform="translate(30,18)"/>
<path d="M0 0 C10.23 0 20.46 0 31 0 C28.42337719 2.57662281 27.07916539 2.34115688 23.5 2.5625 C19.60401365 2.73519346 19.60401365 2.73519346 16 4 C16 13.24 16 22.48 16 32 C18.31 32.66 20.62 33.32 23 34 C21 36 21 36 16 37 C15.67 46.9 15.34 56.8 15 67 C17.97 66.505 17.97 66.505 21 66 C20.505 64.14375 20.505 64.14375 20 62.25 C18.30922749 54.65951063 18.31124957 46.59937694 20 39 C23.96 39 27.92 39 32 39 C32.04898438 40.31613281 32.09796875 41.63226563 32.1484375 42.98828125 C32.70694319 56.5937297 32.70694319 56.5937297 35 70 C35.66 70 36.32 70 37 70 C37.680625 71.051875 38.36125 72.10375 39.0625 73.1875 C42.24550004 77.71361566 45.71927721 80.28774268 51 82 C59.20432754 83.08126398 67.02276751 82.76223805 74 78 C77.55987181 74.98780078 80.41361173 71.87958241 83 68 C83.99 68 84.98 68 86 68 C83.08555538 76.31861581 76.92203984 82.0305809 69.2734375 86.125 C60.62889113 89.45211063 49.50045245 89.27583901 40.921875 85.91015625 C35.28958323 83.24283108 31.15553548 79.55130077 27 75 C27 74.34 27 73.68 27 73 C16.11 73 5.22 73 -6 73 C-6 72.01 -6 71.02 -6 70 C-5.36191406 69.93941406 -4.72382813 69.87882812 -4.06640625 69.81640625 C-3.24011719 69.73261719 -2.41382813 69.64882812 -1.5625 69.5625 C-0.73878906 69.48128906 0.08492187 69.40007812 0.93359375 69.31640625 C2.98662025 69.21069185 2.98662025 69.21069185 4 68 C4.12369325 66.0064857 4.1779639 64.0086353 4.20532227 62.01147461 C4.22526749 60.73022202 4.24521271 59.44896942 4.26576233 58.12889099 C4.28274797 56.72004316 4.29962673 55.31119405 4.31640625 53.90234375 C4.33696915 52.46887095 4.35796544 51.03540431 4.37937927 49.60194397 C4.43466859 45.8224688 4.48404745 42.0429383 4.53222656 38.2633667 C4.58239165 34.40925145 4.63810371 30.55521691 4.69335938 26.70117188 C4.80102479 19.13418286 4.90245097 11.5671269 5 4 C2.525 3.01 2.525 3.01 0 2 C0 1.34 0 0.68 0 0 Z " fill="#DDDDDD" transform="translate(36,19)"/>
<path d="M0 0 C0.69996094 -0.020625 1.39992188 -0.04125 2.12109375 -0.0625 C8.54789467 -0.11019426 12.90848378 1.62314887 18.3125 5.1875 C19.3334375 6.2084375 19.3334375 6.2084375 20.375 7.25 C20.375 8.57 20.375 9.89 20.375 11.25 C19.385 11.600625 18.395 11.95125 17.375 12.3125 C9.62212787 15.63066637 2.78770633 22.57141075 -0.625 30.25 C-2.95794775 30.29241723 -5.29202567 30.29092937 -7.625 30.25 C-9.45534055 28.41965945 -8.75542797 25.51788008 -8.7578125 23.0625 C-8.75910156 21.80695312 -8.76039062 20.55140625 -8.76171875 19.2578125 C-8.75962402 18.60071289 -8.7575293 17.94361328 -8.75537109 17.26660156 C-8.75002234 15.25838665 -8.75531691 13.25039541 -8.76171875 11.2421875 C-8.76042969 9.98664062 -8.75914063 8.73109375 -8.7578125 7.4375 C-8.75612061 5.69533203 -8.75612061 5.69533203 -8.75439453 3.91796875 C-8.49476038 -1.43539355 -4.33617488 0.03091747 0 0 Z " fill="#212121" transform="translate(59.625,21.75)"/>
<path d="M0 0 C2.97 -0.0825 5.94 -0.165 9 -0.25 C10.37865234 -0.30462402 10.37865234 -0.30462402 11.78515625 -0.36035156 C19.31071603 -0.46039117 24.34323911 1.62587325 29.9375 6.625 C32.69351871 9.79859731 33.13848173 11.33231276 33.125 15.4375 C33.12886719 16.61119141 33.12886719 16.61119141 33.1328125 17.80859375 C33 20 33 20 32 23 C31.34 23 30.68 23 30 23 C29.731875 23.598125 29.46375 24.19625 29.1875 24.8125 C28 27 28 27 26.375 28.5625 C24.65438868 30.02978279 24.65438868 30.02978279 25 33 C25.99 33.66 26.98 34.32 28 35 C25.525 35.495 25.525 35.495 23 36 C22.67 35.01 22.34 34.02 22 33 C21.34 33 20.68 33 20 33 C16.09924257 22.87660571 16.71828998 12.65281226 17 2 C13.04 2 9.08 2 5 2 C4.60757715 16.13023501 4.60757715 16.13023501 7 30 C4.69 30 2.38 30 0 30 C0 20.1 0 10.2 0 0 Z " fill="#272727" transform="translate(51,56)"/>
<path d="M0 0 C0.99 0 1.98 0 3 0 C3.94220126 5.52708611 4.12116149 10.83758352 4.0625 16.4375 C4.05798828 17.26443359 4.05347656 18.09136719 4.04882812 18.94335938 C4.03715811 20.96227146 4.01922718 22.98114574 4 25 C3.01 25 2.02 25 1 25 C0.82984375 24.41992188 0.6596875 23.83984375 0.484375 23.2421875 C-1.44412109 17.025865 -3.38254401 11.74497066 -9 8 C-8.67 7.01 -8.34 6.02 -8 5 C-6.02 5 -4.04 5 -2 5 C-1.34 3.35 -0.68 1.7 0 0 Z " fill="#E0E0E0" transform="translate(116,30)"/>
<path d="M0 0 C0 0.66 0 1.32 0 2 C-0.65226562 2.11214844 -1.30453125 2.22429688 -1.9765625 2.33984375 C-7.53157492 3.58978535 -7.53157492 3.58978535 -11.859375 7.09765625 C-12.83848037 8.64958872 -13.77239179 10.23139593 -14.6484375 11.84375 C-16.15626445 14.24930052 -17.59927191 15.50791402 -20 17 C-20.66 17 -21.32 17 -22 17 C-21.22190291 11.12331932 -18.12335389 8.03580922 -14 4 C-9.35653645 0.65238674 -5.65574726 -0.15710409 0 0 Z " fill="#353535" transform="translate(93,34)"/>
<path d="M0 0 C0.99 0 1.98 0 3 0 C0.61332225 6.89214084 -4.1835953 12.27886379 -10.375 16.0625 C-13 17 -13 17 -15 17 C-15 16.34 -15 15.68 -15 15 C-15.99 14.67 -16.98 14.34 -18 14 C-17.43152344 13.79246094 -16.86304687 13.58492187 -16.27734375 13.37109375 C-9.03364319 10.48086932 -4.31987077 6.47980615 0 0 Z " fill="#B4B4B4" transform="translate(119,87)"/>
<path d="M0 0 C0.99 0 1.98 0 3 0 C3.94220126 5.52708611 4.12116149 10.83758352 4.0625 16.4375 C4.05798828 17.26443359 4.05347656 18.09136719 4.04882812 18.94335938 C4.03715811 20.96227146 4.01922718 22.98114574 4 25 C3.01 25 2.02 25 1 25 C0.34 22.36 -0.32 19.72 -1 17 C-0.34 17.33 0.32 17.66 1 18 C1 13.38 1 8.76 1 4 C0.01 3.67 -0.98 3.34 -2 3 C-1.34 2.01 -0.68 1.02 0 0 Z " fill="#9D9D9D" transform="translate(116,30)"/>
<path d="M0 0 C6.52307692 0.61538462 6.52307692 0.61538462 8.9375 2.5625 C9.288125 3.036875 9.63875 3.51125 10 4 C8.4375 5.125 8.4375 5.125 6 6 C4.34879622 5.57068702 2.6984562 5.12788281 1.08203125 4.58203125 C-2.85037608 3.48272789 -6.94121005 3.31033002 -11 3 C-11 2.67 -11 2.34 -11 2 C-7.37 2 -3.74 2 0 2 C0 1.34 0 0.68 0 0 Z " fill="#D0D0D0" transform="translate(100,31)"/>
<path d="M0 0 C0 0.66 0 1.32 0 2 C-0.68707031 2.17015625 -1.37414062 2.3403125 -2.08203125 2.515625 C-2.98308594 2.75796875 -3.88414063 3.0003125 -4.8125 3.25 C-5.70582031 3.48203125 -6.59914063 3.7140625 -7.51953125 3.953125 C-10.37646099 5.15888432 -11.38369034 6.40101703 -13 9 C-13.33 8.34 -13.66 7.68 -14 7 C-14.66 6.67 -15.32 6.34 -16 6 C-11.06422648 1.64490572 -6.64059485 -0.39062323 0 0 Z " fill="#3F3F3F" transform="translate(93,34)"/>
<path d="M0 0 C-0.125 1.875 -0.125 1.875 -1 4 C-4.0625 5.25 -4.0625 5.25 -7 6 C-7 5.34 -7 4.68 -7 4 C-7.99 3.67 -8.98 3.34 -10 3 C-8.70990357 2.49596232 -7.41786211 1.99690074 -6.125 1.5 C-5.04605469 1.08234375 -5.04605469 1.08234375 -3.9453125 0.65625 C-2 0 -2 0 0 0 Z " fill="#CACACA" transform="translate(111,98)"/>
<path d="M0 0 C2.475 0.99 2.475 0.99 5 2 C3.4375 3.625 3.4375 3.625 1 5 C-2.75 4.1875 -2.75 4.1875 -6 3 C-5.38125 2.87625 -4.7625 2.7525 -4.125 2.625 C-1.80879168 2.12802644 -1.80879168 2.12802644 0 0 Z " fill="#C3C3C3" transform="translate(105,32)"/>
<path d="M0 0 C0.66 0.33 1.32 0.66 2 1 C2 1.99 2 2.98 2 4 C2.99 4.66 3.98 5.32 5 6 C3.35 6.33 1.7 6.66 0 7 C-0.33 6.01 -0.66 5.02 -1 4 C-1.66 4 -2.32 4 -3 4 C-2 2 -2 2 0 0 Z " fill="#646464" transform="translate(74,85)"/>
<path d="M0 0 C0.99 0 1.98 0 3 0 C3 2.31 3 4.62 3 7 C2.54625 6.525625 2.0925 6.05125 1.625 5.5625 C0.06741796 3.90972192 0.06741796 3.90972192 -2 3 C-1.34 2.01 -0.68 1.02 0 0 Z " fill="#A6A6A6" transform="translate(116,30)"/>
</svg>
